<svg width="22" height="22" viewBox="0 0 22 22" fill="none" xmlns="http://www.w3.org/2000/svg">
<path d="M19.5556 0H2.44444C1.08778 0 0 1.08778 0 2.44444V7.33333H2.44444V2.44444H19.5556V19.5556H2.44444V14.6667H0V19.5556C0 20.2039 0.257539 20.8256 0.715961 21.284C1.17438 21.7425 1.79614 22 2.44444 22H19.5556C20.2039 22 20.8256 21.7425 21.284 21.284C21.7425 20.8256 22 20.2039 22 19.5556V2.44444C22 1.08778 20.9 0 19.5556 0ZM8.65333 15.3756L10.3889 17.1111L16.5 11L10.3889 4.88889L8.65333 6.61222L11.8189 9.77778H0V12.2222H11.8189L8.65333 15.3756Z" fill="white"/>
</svg>
