<svg width="23" height="48" viewBox="0 0 23 48" fill="none" xmlns="http://www.w3.org/2000/svg">
<path d="M0 38.9397V14.2646H8.23464V38.9397C8.23464 43.1626 10.7508 47.104 14.393 47.104H8.23464C4.11732 47.104 0 43.0218 0 38.9397Z" fill="url(#paint0_linear_1955_2470)"/>
<path d="M14.393 47.104C10.7508 47.104 8.23464 43.1626 8.23464 38.9397H13.113C13.82 38.9397 14.393 38.3666 14.393 37.6597V26.3351H22.6277V38.9397C22.6277 42.9628 18.4161 47.104 14.393 47.104Z" fill="url(#paint1_linear_1955_2470)"/>
<path d="M8.69212 0C12.3344 0 14.393 3.94137 14.393 8.16426H9.51465C8.80772 8.16426 8.23464 8.73734 8.23464 9.44426V19.4179H6.7358e-10L0 9.4048C6.24737e-05 4.08202 4.34612 0 8.69212 0Z" fill="url(#paint2_linear_1955_2470)"/>
<path d="M8.69212 0H14.393C18.5104 0 22.6277 4.70251 22.6277 9.40502V35.0828H14.393L14.393 8.16426C14.393 3.94137 12.3344 0 8.69212 0Z" fill="url(#paint3_linear_1955_2470)"/>
<path d="M8.23464 27.7309C3.68678 27.7309 0 23.9033 0 19.3555H8.23464H14.4549V27.7309H8.23464Z" fill="url(#paint4_linear_1955_2470)"/>
<defs>
<linearGradient id="paint0_linear_1955_2470" x1="11.3138" y1="14.2646" x2="11.3138" y2="47.104" gradientUnits="userSpaceOnUse">
<stop stop-color="#1F54D1"/>
<stop offset="1" stop-color="#4378FF"/>
</linearGradient>
<linearGradient id="paint1_linear_1955_2470" x1="6.26393" y1="42.2125" x2="26.6042" y2="42.2125" gradientUnits="userSpaceOnUse">
<stop stop-color="#1A4FCB"/>
<stop offset="1" stop-color="#4378FF"/>
</linearGradient>
<linearGradient id="paint2_linear_1955_2470" x1="14.1137" y1="6.91725" x2="-0.744457" y2="6.91725" gradientUnits="userSpaceOnUse">
<stop stop-color="#EE9B02"/>
<stop offset="1" stop-color="#F2BF4D"/>
</linearGradient>
<linearGradient id="paint3_linear_1955_2470" x1="18.4874" y1="-0.0307545" x2="18.4874" y2="35.072" gradientUnits="userSpaceOnUse">
<stop stop-color="#FDCA59"/>
<stop offset="1" stop-color="#FEB632"/>
</linearGradient>
<linearGradient id="paint4_linear_1955_2470" x1="14.4549" y1="24.4118" x2="-1.15301e-07" y2="24.4118" gradientUnits="userSpaceOnUse">
<stop stop-color="#FDBD40"/>
<stop offset="0.447932" stop-color="#EFAA22"/>
<stop offset="1" stop-color="#F1BB46"/>
</linearGradient>
</defs>
</svg>
