<svg width="16" height="41" viewBox="0 0 16 41" fill="none" xmlns="http://www.w3.org/2000/svg">
<path fill-rule="evenodd" clip-rule="evenodd" d="M0.0258394 20.6572C0.11989 20.8842 1.11461 21.2171 2.1387 21.3644C2.86931 21.4695 2.89317 21.4953 2.56503 21.8254C1.18394 23.2146 0.475224 25.5393 0.981637 27.0193C3.02574 32.9937 11.9721 31.3537 10.2276 25.3245C9.36575 22.3463 5.04535 22.0022 4.7751 24.8902C4.70117 25.6796 5.23098 26.6622 5.33699 25.9324C5.57867 24.2688 8.03542 24.5731 8.03542 26.2667C8.03542 28.7965 4.42787 28.786 3.69467 26.254C2.84425 23.3172 5.52762 20.8389 8.89774 21.4485C13.2779 22.2409 14.2979 27.6643 10.5362 30.1604C8.46256 31.5364 7.0449 33.1006 6.71032 34.3817C6.11544 36.6599 6.83266 38.8222 8.56092 39.9604C9.32494 40.4637 10.6057 40.9475 10.9513 40.8635C11.0411 40.8416 11.0959 40.8588 11.1185 40.9159C11.146 40.9856 11.2771 41.0006 11.8502 41C12.3221 40.9994 12.5203 40.9816 12.462 40.9451C12.3981 40.9051 12.4336 40.8909 12.5988 40.8902C13.0229 40.8886 13.9878 40.4975 14.5132 40.1142C16.9442 38.3407 16.2654 34.3358 13.4129 33.6223C11.6433 33.1797 9.99387 34.7289 10.7945 36.0815C11.2087 36.7813 11.5697 36.8277 11.5738 36.1816C11.5825 34.7995 13.228 34.6158 13.8609 35.9263C14.6167 37.4911 12.3691 38.987 10.5732 38.1146C9.38639 37.5381 8.86181 36.1428 9.31258 34.7621C9.48878 34.2225 9.51534 34.1756 10.3028 33.0192C10.8515 32.2134 11.898 31.2618 12.9217 30.6377C15.57 29.0234 16.5377 26.5528 15.5339 23.9687C15.0673 22.7675 13.5107 21.1957 12.2756 20.6786C11.9243 20.5315 11.955 20.462 12.4781 20.2203C12.7062 20.1148 12.9704 19.9652 13.0654 19.8876C13.1604 19.81 13.384 19.6421 13.5623 19.5144C14.4847 18.854 15.4646 17.4946 15.7013 16.5472C16.3419 13.9824 15.5119 12.0524 13.0926 10.4819C11.4237 9.39847 10.7366 8.72797 9.84032 7.30799C8.71993 5.53301 8.99018 3.81279 10.5316 2.90762C11.9409 2.07998 14.2908 3.23331 14.0343 4.62672C13.7338 6.25899 11.5742 6.43 11.5716 4.82174C11.5706 4.1728 11.1382 4.24939 10.7641 4.96473C9.89211 6.63214 12.3964 8.20057 14.1845 7.10685C14.3109 7.02953 14.4372 6.96625 14.4653 6.96625C14.6019 6.96625 15.3798 6.07133 15.5803 5.68352C16.7504 3.41969 15.2501 0.427993 12.8231 0.185241C12.6378 0.166747 12.4971 0.123077 12.4795 0.0786242C12.4433 -0.0128942 11.226 -0.0310559 11.1685 0.0590739C11.149 0.0897097 11.0504 0.115276 10.9495 0.115943C9.54638 0.124858 7.5351 1.5606 6.92803 2.98666C5.75188 5.74936 6.75654 8.15417 10.0691 10.5052C11.9348 11.8295 12.6398 12.8537 12.8898 14.6036C13.084 15.9626 12.0494 18.0137 10.7463 18.8531C9.65923 19.5533 7.40501 19.9437 6.66496 19.5599C6.60081 19.5267 6.5013 19.4995 6.44392 19.4997C4.71324 19.5047 3.09501 16.5532 3.74957 14.5854C4.58642 12.0697 8.55713 12.4474 8.00984 14.9907C7.69423 16.4573 5.734 16.6415 5.38649 15.2371C5.34872 15.0845 5.30848 14.9264 5.29709 14.8859C5.20494 14.5581 4.82598 15.1857 4.77746 15.7464C4.58579 17.9615 7.60535 18.9295 9.36133 17.2158C10.6075 15.9996 10.7128 13.5083 9.58323 11.9643C9.48849 11.8348 9.34885 11.6378 9.27285 11.5265C8.50918 10.4075 6.16683 9.81663 4.58614 10.3443C0.646825 11.6591 -0.396295 16.2159 2.56371 19.1788C2.88995 19.5053 2.87207 19.5248 2.1429 19.6359C0.587268 19.8729 -0.151511 20.2294 0.0258394 20.6572Z" fill="white"/>
</svg>
