<svg width="178" height="48" viewBox="0 0 178 48" fill="none" xmlns="http://www.w3.org/2000/svg">
<path d="M0 38.9397V14.2646H8.23464V38.9397C8.23464 43.1626 10.7508 47.104 14.393 47.104H8.23464C4.11732 47.104 0 43.0218 0 38.9397Z" fill="url(#paint0_linear_3201_2308)"/>
<path d="M14.393 47.104C10.7508 47.104 8.23464 43.1626 8.23464 38.9397H13.113C13.82 38.9397 14.393 38.3666 14.393 37.6597V26.3351H22.6277V38.9397C22.6277 42.9628 18.4161 47.104 14.393 47.104Z" fill="url(#paint1_linear_3201_2308)"/>
<path d="M8.69212 0C12.3344 0 14.393 3.94137 14.393 8.16426H9.51465C8.80772 8.16426 8.23464 8.73734 8.23464 9.44426V19.4179H6.7358e-10L0 9.4048C6.24737e-05 4.08202 4.34612 0 8.69212 0Z" fill="url(#paint2_linear_3201_2308)"/>
<path d="M8.69212 0H14.393C18.5104 0 22.6277 4.70251 22.6277 9.40502V35.0828H14.393L14.393 8.16426C14.393 3.94137 12.3344 0 8.69212 0Z" fill="url(#paint3_linear_3201_2308)"/>
<path d="M8.23464 27.7309C3.68678 27.7309 0 23.9033 0 19.3555H8.23464H14.4549V27.7309H8.23464Z" fill="url(#paint4_linear_3201_2308)"/>
<path d="M41.1084 34.293C40.0049 34.293 39.0039 34.0293 38.1055 33.502C37.2168 32.9746 36.5137 32.2471 35.9961 31.3193C35.4883 30.3818 35.2344 29.3369 35.2344 28.1846V26.793C35.2344 26.7148 35.2734 26.6758 35.3516 26.6758H38.75C38.8281 26.6758 38.8672 26.7295 38.8672 26.8369V28.1846C38.8672 28.917 39.0771 29.5176 39.4971 29.9863C39.917 30.4453 40.4541 30.6748 41.1084 30.6748C41.7139 30.6748 42.2363 30.4258 42.6758 29.9277C43.1152 29.4199 43.335 28.8389 43.335 28.1846V13.2725C43.335 13.1943 43.374 13.1553 43.4521 13.1553H46.8213C46.8994 13.1553 46.9385 13.2041 46.9385 13.3018L46.9678 28.1846C46.9678 29.2783 46.7041 30.2891 46.1768 31.2168C45.6396 32.1543 44.9316 32.9014 44.0527 33.458C43.1738 34.0146 42.1924 34.293 41.1084 34.293ZM48.2129 33.8535L51.9336 13.2432C51.9531 13.165 52.002 13.126 52.0801 13.126H56.4307C56.5088 13.126 56.5576 13.165 56.5771 13.2432L60.1514 33.8535C60.1611 33.9512 60.1221 34 60.0342 34H56.709C56.6113 34 56.5576 33.9512 56.5479 33.8535L56.2256 31.6562H52.1387L51.8164 33.8535C51.8066 33.9512 51.7578 34 51.6699 34H48.3301C48.252 34 48.2129 33.9512 48.2129 33.8535ZM54.0869 20.0254L52.7393 28.4482H55.625L54.3945 20.0254L54.2188 18.9121L54.0869 20.0254ZM65.542 34H62.1436C62.0654 34 62.0264 33.9512 62.0264 33.8535L62.085 13.2432C62.085 13.165 62.124 13.126 62.2021 13.126H68.2666C69.3506 13.126 70.3467 13.3896 71.2549 13.917C72.1631 14.4443 72.8857 15.1523 73.4229 16.041C73.9697 16.9297 74.2432 17.9355 74.2432 19.0586C74.2432 19.791 74.1309 20.4551 73.9062 21.0508C73.6816 21.6465 73.418 22.1494 73.1152 22.5596C72.8223 22.9697 72.5537 23.2725 72.3096 23.4678C73.3936 24.6689 73.9355 26.0801 73.9355 27.7012L73.9648 33.8535C73.9648 33.9512 73.916 34 73.8184 34H70.4199C70.3418 34 70.3027 33.9707 70.3027 33.9121V27.7012C70.3027 26.9785 70.0488 26.3535 69.541 25.8262C69.0332 25.2988 68.4082 25.0352 67.666 25.0352H65.6885L65.6592 33.8535C65.6592 33.9512 65.6201 34 65.542 34ZM68.2666 16.7148H65.6885V21.4316H68.2666C68.8818 21.4316 69.4287 21.2021 69.9072 20.7432C70.3955 20.2842 70.6396 19.7227 70.6396 19.0586C70.6396 18.4238 70.4053 17.877 69.9365 17.418C69.4678 16.9492 68.9111 16.7148 68.2666 16.7148ZM82.7539 34H79.3115C79.2432 34 79.209 33.9609 79.209 33.8828L79.2383 25.3574L75.2246 13.2432C75.2051 13.165 75.2344 13.126 75.3125 13.126H78.6523C78.75 13.126 78.8086 13.165 78.8281 13.2432L81.04 21.3145L83.2959 13.2432C83.3154 13.165 83.3643 13.126 83.4424 13.126H86.8115C86.8896 13.126 86.9189 13.165 86.8994 13.2432L82.8418 25.2402L82.8711 33.8828C82.8711 33.9609 82.832 34 82.7539 34ZM98.4131 35.9189L96.3477 33.8242C95.6152 34.1367 94.8633 34.293 94.0918 34.293C93.0273 34.293 92.0508 34.0244 91.1621 33.4873C90.2637 32.9502 89.541 32.2227 88.9941 31.3047C88.457 30.377 88.1885 29.3662 88.1885 28.2725L88.2178 18.7656C88.2178 17.7012 88.4814 16.7148 89.0088 15.8066C89.5264 14.8984 90.2295 14.1709 91.1182 13.624C92.0068 13.0674 92.998 12.7891 94.0918 12.7891C95.1562 12.7891 96.1328 13.0527 97.0215 13.5801C97.9102 14.1172 98.6182 14.835 99.1455 15.7334C99.6826 16.6318 99.9512 17.6426 99.9512 18.7656L99.9805 28.2725C99.9805 28.8486 99.8975 29.4102 99.7314 29.957C99.5752 30.4941 99.3652 30.9922 99.1016 31.4512L100.962 33.3408C101.06 33.4189 101.069 33.4873 100.991 33.5459L98.6328 35.9189C98.5645 35.9775 98.4912 35.9775 98.4131 35.9189ZM94.0918 30.6748C94.7754 30.6748 95.3223 30.4209 95.7324 29.9131C96.1426 29.3955 96.3477 28.8486 96.3477 28.2725L96.3184 18.7656C96.3184 18.1211 96.1084 17.5645 95.6885 17.0957C95.2686 16.627 94.7363 16.3926 94.0918 16.3926C93.418 16.3926 92.876 16.6318 92.4658 17.1104C92.0557 17.5889 91.8506 18.1406 91.8506 18.7656V28.2725C91.8506 28.9951 92.085 29.5762 92.5537 30.0156C93.0225 30.4551 93.5352 30.6748 94.0918 30.6748Z" fill="#FDC249"/>
<path d="M115.801 34.293C114.717 34.293 113.74 34.0244 112.871 33.4873C111.992 32.9502 111.284 32.2275 110.747 31.3193C110.22 30.4111 109.956 29.3955 109.956 28.2725V18.7656C109.956 17.6719 110.225 16.6758 110.762 15.7773C111.289 14.8691 111.997 14.1465 112.886 13.6094C113.774 13.0625 114.746 12.7891 115.801 12.7891C116.904 12.7891 117.9 13.0527 118.789 13.5801C119.678 14.1172 120.381 14.835 120.898 15.7334C121.426 16.6318 121.689 17.6426 121.689 18.7656V20.1426C121.689 20.2207 121.641 20.2598 121.543 20.2598H118.174C118.096 20.2598 118.057 20.2207 118.057 20.1426V19C118.057 18.2383 117.842 17.6084 117.412 17.1104C116.982 16.6123 116.445 16.3633 115.801 16.3633C115.225 16.3633 114.712 16.6025 114.263 17.0811C113.813 17.5596 113.589 18.1211 113.589 18.7656V28.2725C113.589 28.9268 113.809 29.4932 114.248 29.9717C114.688 30.4404 115.205 30.6748 115.801 30.6748C116.445 30.6748 116.982 30.4453 117.412 29.9863C117.842 29.5176 118.057 28.9463 118.057 28.2725V26.793H115.962C115.854 26.793 115.801 26.7441 115.801 26.6465V23.292C115.801 23.1943 115.854 23.1455 115.962 23.1455H121.572C121.65 23.1455 121.689 23.1943 121.689 23.292V28.2725C121.689 29.3955 121.426 30.4111 120.898 31.3193C120.361 32.2275 119.653 32.9502 118.774 33.4873C117.896 34.0244 116.904 34.293 115.801 34.293ZM122.803 33.8535L126.523 13.2432C126.543 13.165 126.592 13.126 126.67 13.126H131.021C131.099 13.126 131.147 13.165 131.167 13.2432L134.741 33.8535C134.751 33.9512 134.712 34 134.624 34H131.299C131.201 34 131.147 33.9512 131.138 33.8535L130.815 31.6562H126.729L126.406 33.8535C126.396 33.9512 126.348 34 126.26 34H122.92C122.842 34 122.803 33.9512 122.803 33.8535ZM128.677 20.0254L127.329 28.4482H130.215L128.984 20.0254L128.809 18.9121L128.677 20.0254ZM140.132 34H136.733C136.655 34 136.616 33.9512 136.616 33.8535L136.675 13.2432C136.675 13.165 136.714 13.126 136.792 13.126H140.454C140.532 13.126 140.601 13.165 140.659 13.2432L143.398 17.1982L146.123 13.2432C146.182 13.165 146.255 13.126 146.343 13.126H150.02C150.107 13.126 150.151 13.165 150.151 13.2432L150.21 33.8535C150.21 33.9512 150.171 34 150.093 34H146.694C146.616 34 146.577 33.9512 146.577 33.8535L146.548 18.5459L143.398 23.1162L140.278 18.5459L140.249 33.8535C140.249 33.9512 140.21 34 140.132 34ZM162.544 34H152.847C152.769 34 152.729 33.9512 152.729 33.8535L152.759 13.2432C152.759 13.165 152.798 13.126 152.876 13.126H162.515C162.593 13.126 162.632 13.1748 162.632 13.2725V16.627C162.632 16.7051 162.593 16.7441 162.515 16.7441H156.362V21.4316H162.515C162.593 21.4316 162.632 21.4707 162.632 21.5488L162.661 24.9473C162.661 25.0254 162.622 25.0645 162.544 25.0645H156.362V30.3086H162.544C162.622 30.3086 162.661 30.3574 162.661 30.4551V33.8828C162.661 33.9609 162.622 34 162.544 34ZM170.425 34.293C169.36 34.293 168.379 34.0195 167.48 33.4727C166.592 32.9258 165.879 32.1982 165.342 31.29C164.814 30.3721 164.551 29.3662 164.551 28.2725V26.8955C164.551 26.7881 164.6 26.7344 164.697 26.7344H168.066C168.145 26.7344 168.184 26.7881 168.184 26.8955V28.2725C168.184 28.9268 168.403 29.4932 168.843 29.9717C169.282 30.4404 169.81 30.6748 170.425 30.6748C171.05 30.6748 171.582 30.4355 172.021 29.957C172.461 29.4688 172.681 28.9072 172.681 28.2725C172.681 27.54 172.202 26.9004 171.245 26.3535C171.089 26.2559 170.884 26.1387 170.63 26.002C170.386 25.8555 170.093 25.6895 169.751 25.5039C169.409 25.3184 169.077 25.1377 168.755 24.9619C168.433 24.7764 168.12 24.6006 167.817 24.4346C166.724 23.79 165.908 22.9844 165.371 22.0176C164.844 21.041 164.58 19.9473 164.58 18.7363C164.58 17.623 164.854 16.6172 165.4 15.7188C165.947 14.8301 166.66 14.127 167.539 13.6094C168.428 13.082 169.39 12.8184 170.425 12.8184C171.489 12.8184 172.466 13.082 173.354 13.6094C174.243 14.1465 174.951 14.8594 175.479 15.748C176.016 16.6367 176.284 17.6328 176.284 18.7363V21.1973C176.284 21.2754 176.245 21.3145 176.167 21.3145H172.798C172.72 21.3145 172.681 21.2754 172.681 21.1973L172.651 18.7363C172.651 18.0332 172.432 17.4619 171.992 17.0225C171.553 16.583 171.03 16.3633 170.425 16.3633C169.81 16.3633 169.282 16.5977 168.843 17.0664C168.403 17.5352 168.184 18.0918 168.184 18.7363C168.184 19.3906 168.32 19.9375 168.594 20.377C168.877 20.8164 169.39 21.2363 170.132 21.6367C170.21 21.6758 170.391 21.7734 170.674 21.9297C170.957 22.0859 171.27 22.2617 171.611 22.457C171.963 22.6426 172.28 22.8135 172.563 22.9697C172.847 23.1162 173.018 23.2041 173.076 23.2334C174.072 23.79 174.858 24.4736 175.435 25.2842C176.021 26.0947 176.313 27.0908 176.313 28.2725C176.313 29.415 176.05 30.4404 175.522 31.3486C174.985 32.2568 174.272 32.9746 173.384 33.502C172.495 34.0293 171.509 34.293 170.425 34.293Z" fill="#386DF1"/>
<defs>
<linearGradient id="paint0_linear_3201_2308" x1="11.3138" y1="14.2646" x2="11.3138" y2="47.104" gradientUnits="userSpaceOnUse">
<stop stop-color="#1F54D1"/>
<stop offset="1" stop-color="#4378FF"/>
</linearGradient>
<linearGradient id="paint1_linear_3201_2308" x1="6.26393" y1="42.2125" x2="26.6042" y2="42.2125" gradientUnits="userSpaceOnUse">
<stop stop-color="#1A4FCB"/>
<stop offset="1" stop-color="#4378FF"/>
</linearGradient>
<linearGradient id="paint2_linear_3201_2308" x1="14.1137" y1="6.91725" x2="-0.744457" y2="6.91725" gradientUnits="userSpaceOnUse">
<stop stop-color="#EE9B02"/>
<stop offset="1" stop-color="#F2BF4D"/>
</linearGradient>
<linearGradient id="paint3_linear_3201_2308" x1="18.4874" y1="-0.0307545" x2="18.4874" y2="35.072" gradientUnits="userSpaceOnUse">
<stop stop-color="#FDCA59"/>
<stop offset="1" stop-color="#FEB632"/>
</linearGradient>
<linearGradient id="paint4_linear_3201_2308" x1="14.4549" y1="24.4118" x2="-1.15301e-07" y2="24.4118" gradientUnits="userSpaceOnUse">
<stop stop-color="#FDBD40"/>
<stop offset="0.447932" stop-color="#EFAA22"/>
<stop offset="1" stop-color="#F1BB46"/>
</linearGradient>
</defs>
</svg>
