<svg width="7" height="11" viewBox="0 0 7 11" fill="none" xmlns="http://www.w3.org/2000/svg">
<path d="M1.24408 7.25174C1.24408 6.93556 1.27725 6.63978 1.3436 6.3644C1.40995 6.08901 1.53712 5.82893 1.72512 5.58415C1.92417 5.33936 2.21169 5.12007 2.58768 4.92629C2.73144 4.84469 2.91943 4.7529 3.15166 4.6509C3.39494 4.53871 3.6327 4.40612 3.86493 4.25313C4.09716 4.10014 4.29068 3.92165 4.4455 3.71766C4.61137 3.51368 4.69431 3.28929 4.69431 3.04451C4.69431 2.82012 4.62796 2.63143 4.49526 2.47844C4.37362 2.31525 4.21327 2.19286 4.01422 2.11127C3.82622 2.01947 3.61611 1.97357 3.38389 1.97357C3.09637 1.97357 2.84202 2.03477 2.62085 2.15716C2.41074 2.27955 2.23381 2.42745 2.09005 2.60083C1.94629 2.76402 1.81912 2.92211 1.70853 3.0751L0 1.97357C0.187994 1.5554 0.453397 1.20352 0.796209 0.917942C1.15008 0.622161 1.55371 0.397775 2.00711 0.244785C2.47156 0.081595 2.96367 0 3.48341 0C3.89257 0 4.30727 0.0560966 4.72749 0.16829C5.14771 0.280482 5.52923 0.458971 5.87204 0.703755C6.21485 0.94854 6.48578 1.26982 6.68483 1.66759C6.89494 2.05517 7 2.51924 7 3.05981C7 3.35559 6.96682 3.62587 6.90047 3.87065C6.84518 4.10524 6.75118 4.32453 6.61848 4.52851C6.48578 4.7223 6.31991 4.90589 6.12085 5.07928C5.9218 5.24247 5.70063 5.40056 5.45735 5.55355C5.14771 5.73714 4.83807 5.90542 4.52844 6.05841C4.2188 6.20121 3.95893 6.3644 3.74882 6.54798C3.5387 6.73157 3.43365 6.96616 3.43365 7.25174H1.24408ZM1.29384 11V8.70515H3.46682V11H1.29384Z" fill="#F2BF4D"/>
</svg>
